<svg xmlns="http://www.w3.org/2000/svg" viewBox="0 0 1505.4499999999998 429" width="1505.4499999999998" height="429" style="--bg:#FFFFFF;--fg:#27272A;background:var(--bg)">
<style>
  @import url('https://fonts.googleapis.com/css2?family=Inter:wght@400;500;600;700&amp;display=swap');
  text { font-family: 'Inter', system-ui, sans-serif; }
  svg {
    /* Derived from --bg and --fg (overridable via --line, --accent, etc.) */
    --_text:          var(--fg);
    --_text-sec:      var(--muted, color-mix(in srgb, var(--fg) 60%, var(--bg)));
    --_text-muted:    var(--muted, color-mix(in srgb, var(--fg) 40%, var(--bg)));
    --_text-faint:    color-mix(in srgb, var(--fg) 25%, var(--bg));
    --_line:          var(--line, color-mix(in srgb, var(--fg) 30%, var(--bg)));
    --_arrow:         var(--accent, color-mix(in srgb, var(--fg) 50%, var(--bg)));
    --_node-fill:     var(--surface, color-mix(in srgb, var(--fg) 3%, var(--bg)));
    --_node-stroke:   var(--border, color-mix(in srgb, var(--fg) 20%, var(--bg)));
    --_group-fill:    var(--bg);
    --_group-hdr:     color-mix(in srgb, var(--fg) 5%, var(--bg));
    --_inner-stroke:  color-mix(in srgb, var(--fg) 12%, var(--bg));
    --_key-badge:     color-mix(in srgb, var(--fg) 10%, var(--bg));
  }
</style>
<defs>
  <marker id="arrowhead" markerWidth="8" markerHeight="4.8" refX="8" refY="2.4" orient="auto">
    <polygon points="0 0, 8 2.4, 0 4.8" fill="var(--_arrow)" />
  </marker>
  <marker id="arrowhead-start" markerWidth="8" markerHeight="4.8" refX="0" refY="2.4" orient="auto-start-reverse">
    <polygon points="8 0, 0 2.4, 8 4.8" fill="var(--_arrow)" />
  </marker>
</defs>
<rect x="40" y="62" width="215" height="176" rx="0" ry="0" fill="var(--_group-fill)" stroke="var(--_node-stroke)" stroke-width="1" />
<rect x="40" y="62" width="215" height="28" rx="0" ry="0" fill="var(--_group-hdr)" stroke="var(--_node-stroke)" stroke-width="1" />
<text x="52" y="76" dy="0.35em" font-size="12" font-weight="600" fill="var(--_text-sec)">Clients</text>
<rect x="335" y="62" width="150.64999999999998" height="156" rx="0" ry="0" fill="var(--_group-fill)" stroke="var(--_node-stroke)" stroke-width="1" />
<rect x="335" y="62" width="150.64999999999998" height="28" rx="0" ry="0" fill="var(--_group-hdr)" stroke="var(--_node-stroke)" stroke-width="1" />
<text x="347" y="76" dy="0.35em" font-size="12" font-weight="600" fill="var(--_text-sec)">Edge</text>
<rect x="565.6500000000001" y="62" width="676.2999999999998" height="196" rx="0" ry="0" fill="var(--_group-fill)" stroke="var(--_node-stroke)" stroke-width="1" />
<rect x="565.6500000000001" y="62" width="676.2999999999998" height="28" rx="0" ry="0" fill="var(--_group-hdr)" stroke="var(--_node-stroke)" stroke-width="1" />
<text x="577.6500000000001" y="76" dy="0.35em" font-size="12" font-weight="600" fill="var(--_text-sec)">CoreServices</text>
<rect x="832.0500000000001" y="242" width="633.3999999999999" height="127" rx="0" ry="0" fill="var(--_group-fill)" stroke="var(--_node-stroke)" stroke-width="1" />
<rect x="832.0500000000001" y="242" width="633.3999999999999" height="28" rx="0" ry="0" fill="var(--_group-hdr)" stroke="var(--_node-stroke)" stroke-width="1" />
<text x="844.0500000000001" y="256" dy="0.35em" font-size="12" font-weight="600" fill="var(--_text-sec)">DataAndEvents</text>
<polyline points="227.85000000000002,138 410.325,138 410.325,140" fill="none" stroke="var(--_line)" stroke-width="0.75" marker-end="url(#arrowhead)" />
<polyline points="235,198 410.325,198 410.325,176" fill="none" stroke="var(--_line)" stroke-width="0.75" marker-end="url(#arrowhead)" />
<polyline points="465.65,158 585.65,158" fill="none" stroke="var(--_line)" stroke-width="0.75" marker-end="url(#arrowhead)" />
<polyline points="732.0500000000001,158 752.05,158 752.05,138 852.05,138" fill="none" stroke="var(--_line)" stroke-width="0.75" marker-end="url(#arrowhead)" />
<polyline points="732.0500000000001,158 752.05,158 752.05,118 910.9499999999999,118 910.9499999999999,76" fill="none" stroke="var(--_line)" stroke-width="0.75" marker-end="url(#arrowhead)" />
<polyline points="732.0500000000001,158 752.05,158 752.05,228 910.9499999999999,228 910.9499999999999,300" fill="none" stroke="var(--_line)" stroke-width="0.75" marker-end="url(#arrowhead)" />
<polyline points="732.0500000000001,158 752.05,158 752.05,178 1261.9499999999998,178 1261.9499999999998,310.75 1393.6999999999998,310.75 1393.6999999999998,300" fill="none" stroke="var(--_line)" stroke-width="0.75" marker-end="url(#arrowhead)" />
<polyline points="944.8249999999999,323.5 1155.8999999999999,323.5 1155.8999999999999,236" fill="none" stroke="var(--_line)" stroke-width="0.75" marker-end="url(#arrowhead)" />
<polyline points="1221.9499999999998,218 1261.9499999999998,218 1261.9499999999998,336.25 1393.6999999999998,336.25 1393.6999999999998,347" fill="none" stroke="var(--_line)" stroke-width="0.75" marker-end="url(#arrowhead)" />
<rect x="852.05" y="40" width="117.80000000000001" height="36" rx="0" ry="0" fill="var(--_node-fill)" stroke="var(--_node-stroke)" stroke-width="0.75" />
<rect x="67.14999999999999" y="120" width="160.70000000000002" height="36" rx="0" ry="0" fill="var(--_node-fill)" stroke="var(--_node-stroke)" stroke-width="0.75" />
<rect x="60" y="180" width="175" height="36" rx="0" ry="0" fill="var(--_node-fill)" stroke="var(--_node-stroke)" stroke-width="0.75" />
<rect x="355" y="140" width="110.65" height="36" rx="0" ry="0" fill="var(--_node-fill)" stroke="var(--_node-stroke)" stroke-width="0.75" />
<rect x="585.65" y="140" width="146.4" height="36" rx="0" ry="0" fill="var(--_node-fill)" stroke="var(--_node-stroke)" stroke-width="0.75" />
<rect x="852.05" y="120" width="117.80000000000001" height="36" rx="0" ry="0" fill="var(--_node-fill)" stroke="var(--_node-stroke)" stroke-width="0.75" />
<rect x="1089.85" y="200" width="132.10000000000002" height="36" rx="0" ry="0" fill="var(--_node-fill)" stroke="var(--_node-stroke)" stroke-width="0.75" />
<rect x="877.0749999999999" y="307" width="67.75" height="33" fill="var(--_node-fill)" stroke="none" />
<line x1="877.0749999999999" y1="307" x2="877.0749999999999" y2="340" stroke="var(--_node-stroke)" stroke-width="0.75" />
<line x1="944.8249999999999" y1="307" x2="944.8249999999999" y2="340" stroke="var(--_node-stroke)" stroke-width="0.75" />
<ellipse cx="910.9499999999999" cy="340" rx="33.875" ry="7" fill="var(--_node-fill)" stroke="var(--_node-stroke)" stroke-width="0.75" />
<ellipse cx="910.9499999999999" cy="307" rx="33.875" ry="7" fill="var(--_node-fill)" stroke="var(--_node-stroke)" stroke-width="0.75" />
<rect x="1341.9499999999998" y="307" width="103.5" height="33" fill="var(--_node-fill)" stroke="none" />
<line x1="1341.9499999999998" y1="307" x2="1341.9499999999998" y2="340" stroke="var(--_node-stroke)" stroke-width="0.75" />
<line x1="1445.4499999999998" y1="307" x2="1445.4499999999998" y2="340" stroke="var(--_node-stroke)" stroke-width="0.75" />
<ellipse cx="1393.6999999999998" cy="340" rx="51.75" ry="7" fill="var(--_node-fill)" stroke="var(--_node-stroke)" stroke-width="0.75" />
<ellipse cx="1393.6999999999998" cy="307" rx="51.75" ry="7" fill="var(--_node-fill)" stroke="var(--_node-stroke)" stroke-width="0.75" />
<text x="910.9499999999999" y="58" text-anchor="middle" dy="0.35em" font-size="13" font-weight="500" fill="var(--_text)">External PSP</text>
<text x="147.5" y="138" text-anchor="middle" dy="0.35em" font-size="13" font-weight="500" fill="var(--_text)">Merchant Dashboard</text>
<text x="147.5" y="198" text-anchor="middle" dy="0.35em" font-size="13" font-weight="500" fill="var(--_text)">Partner Integrations</text>
<text x="410.325" y="158" text-anchor="middle" dy="0.35em" font-size="13" font-weight="500" fill="var(--_text)">API Gateway</text>
<text x="658.85" y="158" text-anchor="middle" dy="0.35em" font-size="13" font-weight="500" fill="var(--_text)">Payments Service</text>
<text x="910.9499999999999" y="138" text-anchor="middle" dy="0.35em" font-size="13" font-weight="500" fill="var(--_text)">Risk Service</text>
<text x="1155.8999999999999" y="218" text-anchor="middle" dy="0.35em" font-size="13" font-weight="500" fill="var(--_text)">Ledger Service</text>
<text x="910.9499999999999" y="323.5" text-anchor="middle" dy="0.35em" font-size="13" font-weight="500" fill="var(--_text)">Kafka</text>
<text x="1393.6999999999998" y="323.5" text-anchor="middle" dy="0.35em" font-size="13" font-weight="500" fill="var(--_text)">PostgreSQL</text>
</svg>